<svg id="Layer_1" data-name="Layer 1" xmlns="http://www.w3.org/2000/svg" viewBox="0 0 1010.64 1074.74"><title>design</title><path d="M459.61,1096.12l158-163a45.33,45.33,0,0,1,64.78-.06l159.07,163.38c27.91,28.68,77.15,9.26,77.15-30.41V431.35c0-24.31-20-44-44.79-44H427.19c-24.74,0-44.79,19.7-44.79,44v634.41C382.4,1105.48,431.72,1124.87,459.61,1096.12Z" transform="translate(-56.36 -35.42)" style="fill:#efefef"/><path d="M856.67,364.47a15.25,15.25,0,0,1,15.47,15v689.71c0,9.41-8,15-15.7,15a15.11,15.11,0,0,1-11-4.77L647.12,875.76a42.39,42.39,0,0,0-60.65.06L389.21,1079.21a15.11,15.11,0,0,1-11.06,4.78c-7.72,0-15.7-5.62-15.7-15V379.45a15.25,15.25,0,0,1,15.48-15H856.67m0-13.28H377.93a28.51,28.51,0,0,0-28.76,28.26V1069c0,17.09,14.21,28.32,29,28.32a28.4,28.4,0,0,0,20.6-8.82L596,885.07a29.11,29.11,0,0,1,41.61,0l198.27,203.66a28.38,28.38,0,0,0,20.56,8.78c14.77,0,29-11.23,29-28.31V379.45a28.51,28.51,0,0,0-28.75-28.26Z" transform="translate(-56.36 -35.42)" style="fill:#3a3838"/><circle cx="490.74" cy="549.15" r="25.62" style="fill:#595959"/><path d="M547.11,561.8a22.77,22.77,0,1,1-22.77,22.77,22.79,22.79,0,0,1,22.77-22.77m0-5.69a28.46,28.46,0,1,0,28.46,28.46,28.47,28.47,0,0,0-28.46-28.46Z" transform="translate(-56.36 -35.42)" style="fill:#3f3f3f"/><circle cx="623.56" cy="549.15" r="25.62" style="fill:#595959"/><path d="M679.93,561.8a22.77,22.77,0,1,1-22.77,22.77,22.79,22.79,0,0,1,22.77-22.77m0-5.69a28.46,28.46,0,1,0,28.46,28.46,28.47,28.47,0,0,0-28.46-28.46Z" transform="translate(-56.36 -35.42)" style="fill:#3f3f3f"/><path d="M655.54,655.73H569.6a6.8,6.8,0,0,0-6.71,7.84,50.31,50.31,0,0,0,24.24,35.52,30.31,30.31,0,0,1,52.26-.84,50.32,50.32,0,0,0,22.88-34.86A6.74,6.74,0,0,0,655.54,655.73Z" transform="translate(-56.36 -35.42)" style="fill:#595959"/><path d="M588.18,703l-2.49-1.46A53,53,0,0,1,560.08,664a9.64,9.64,0,0,1,9.52-11.13h85.94a9.7,9.7,0,0,1,7.36,3.38,9.44,9.44,0,0,1,2.18,7.56,53.11,53.11,0,0,1-24.17,36.84l-2.44,1.54L637,699.74a27.46,27.46,0,0,0-47.36.76ZM569.6,658.57a4,4,0,0,0-3.89,4.56,47.21,47.21,0,0,0,20.53,32,33.15,33.15,0,0,1,53.92-.88A47.36,47.36,0,0,0,659.45,663a3.66,3.66,0,0,0-.87-3,4,4,0,0,0-3-1.4Z" transform="translate(-56.36 -35.42)" style="fill:#3f3f3f"/><path d="M613.52,683.71a30.34,30.34,0,0,0-26.39,15.38,50.23,50.23,0,0,0,52.26-.84A30.31,30.31,0,0,0,613.52,683.71Z" transform="translate(-56.36 -35.42)" style="fill:#ffb0c8"/><path d="M612.57,708.85a53.05,53.05,0,0,1-26.88-7.3l-2.42-1.42,1.39-2.44a33.16,33.16,0,0,1,57.16-.93l1.46,2.4-2.37,1.5A53,53,0,0,1,612.57,708.85Zm-21.4-10.79a47.41,47.41,0,0,0,44.15-.72,27.27,27.27,0,0,0-21.8-10.78A27.57,27.57,0,0,0,591.17,698.06Z" transform="translate(-56.36 -35.42)" style="fill:#3f3f3f"/><path d="M224.54,273.4a72.11,72.11,0,1,1,72.11-72.11A72.19,72.19,0,0,1,224.54,273.4Zm0-125.23a53.13,53.13,0,1,0,53.13,53.12A53.18,53.18,0,0,0,224.54,148.17Z" transform="translate(-56.36 -35.42)" style="fill:#ed1c24"/><g style="opacity:0.44"><circle cx="786.74" cy="387.87" r="149.9" style="fill:#ed1c24"/></g><g style="opacity:0.44"><circle cx="914.82" cy="496.97" r="90.13" style="fill:blue"/></g><path d="M1013.87,1009.6A53.13,53.13,0,1,1,1067,956.47,53.2,53.2,0,0,1,1013.87,1009.6Zm0-87.29A34.16,34.16,0,1,0,1048,956.47,34.2,34.2,0,0,0,1013.87,922.31Z" transform="translate(-56.36 -35.42)" style="fill:aqua"/><path d="M919,211.58l-31.14-56.94L830.92,123.5l56.94-31.14L919,35.42l31.14,56.94,56.94,31.14-56.94,31.14ZM870.46,123.5l31.38,17.16L919,172l17.16-31.37,31.38-17.16-31.38-17.16L919,75l-17.16,31.38Z" transform="translate(-56.36 -35.42)" style="fill:#fcee21"/><path d="M192.29,825.49l-40.44-96.8L56.36,706l95.49-22.68,40.44-96.81,40.43,96.81L328.21,706l-95.49,22.68ZM138.47,706l27.17,6.45,26.65,63.8,26.65-63.8L246.11,706l-27.17-6.46-26.65-63.8-26.65,63.8Z" transform="translate(-56.36 -35.42)" style="fill:blue"/></svg>