<svg id="Layer_1" data-name="Layer 1" xmlns="http://www.w3.org/2000/svg" viewBox="0 0 647.14 704.31"><title>noresult</title><path d="M918.83,886,715.27,806.9c33.24-16.64,54-38,47.36-62.95-25.45-80-191.58-88.44-285.4-85.44-72.93,2.33-160.08,30.36-188,69.54a39.17,39.17,0,0,0-.36,44.58c38,57,183,77,240.48,73.12,42.95-2.87,102.44-8.41,148-23.48,0,0,129.36,51,207.07,79.93a39.85,39.85,0,0,0,35.68-3.94h0A7,7,0,0,0,918.83,886Z" transform="translate(-277.12 -219.5)" style="fill:#fff;stroke:#f15a24;stroke-miterlimit:10;stroke-width:2px"/><path d="M431.44,709.17s190.15-33.81,259.17,32.39" transform="translate(-277.12 -219.5)" style="fill:none;stroke:#f15a24;stroke-miterlimit:10;stroke-width:2px"/><path d="M331.43,751.42c12.68,63.39,130.1,73.25,202.83,73.25s190.16-31,177.48-78.88c-19.72-62-148.41-66.2-221.14-66.2S334.25,712,331.43,751.42Z" transform="translate(-277.12 -219.5)" style="fill:none;stroke:#f15a24;stroke-miterlimit:10;stroke-width:2px"/><path d="M701.88,851.43,882.17,919s38,12.68,40.85-8.45" transform="translate(-277.12 -219.5)" style="fill:none;stroke:#f15a24;stroke-miterlimit:10;stroke-width:2px"/><path d="M669.48,844.39S375,905,277.91,781" transform="translate(-277.12 -219.5)" style="fill:none;stroke:#f15a24;stroke-miterlimit:10;stroke-width:2px"/><path d="M604.69,613.39C624.41,448.59,539.9,381,539.9,381l-73.25,1.4S411.72,465.49,399,574" transform="translate(-277.12 -219.5)" style="fill:none;stroke:#4d4d4d;stroke-linecap:round;stroke-miterlimit:10;stroke-width:5px"/><path d="M604.69,613.39C624.41,448.59,539.9,381,539.9,381l-73.25,1.4S411.72,465.49,399,574l-2.81,15.49c-6.73,33.06-12.92,125.3-13.05,182.35,0,11.51,15.19,15.68,21,5.75,27.32-46.62,78.51-112.62,133.63-74.47a11.54,11.54,0,0,1,1.28,1c5.13,4.73,41.3,38.88,71.93,87.34,6.5,10.28,22.42,4.43,20.72-7.61-10-70.83-24.24-158.34-24.24-162Z" transform="translate(-277.12 -219.5)" style="fill:#fff;stroke:#4d4d4d;stroke-linecap:round;stroke-miterlimit:10;stroke-width:5px"/><path d="M442.71,424.64s-67.61,35.21-36.62,198.61" transform="translate(-277.12 -219.5)" style="fill:none;stroke:#4d4d4d;stroke-linecap:round;stroke-miterlimit:10;stroke-width:5px"/><path d="M425.81,617.61s-1.41,5.64-12.68,18.31" transform="translate(-277.12 -219.5)" style="fill:none;stroke:#4d4d4d;stroke-linecap:round;stroke-miterlimit:10;stroke-width:5px"/><line x1="131.78" y1="431.92" x2="131.78" y2="447.41" style="fill:none;stroke:#4d4d4d;stroke-linecap:round;stroke-miterlimit:10;stroke-width:5px"/><line x1="140.23" y1="424.87" x2="145.87" y2="431.92" style="fill:none;stroke:#4d4d4d;stroke-linecap:round;stroke-miterlimit:10;stroke-width:5px"/><line x1="123.33" y1="430.51" x2="116.29" y2="434.73" style="fill:none;stroke:#4d4d4d;stroke-linecap:round;stroke-miterlimit:10;stroke-width:5px"/><path d="M487.88,393.07c21.25,10.79,47.58,1.78,56.75-20.21,4.18-10,6.28-23.78,3.72-42.59,0,0-19-125.14-75.36-106.35-39.39,13.13-26.08,91.72-18.18,126.14a64.2,64.2,0,0,0,31.88,42.39Z" transform="translate(-277.12 -219.5)" style="fill:#fff;stroke:#4d4d4d;stroke-miterlimit:10;stroke-width:5px"/><rect x="518.82" y="445.83" width="326.5" height="180.28" rx="12" transform="translate(-445.85 147.31) rotate(-26.92)" style="fill:#096791"/><rect x="501.91" y="440.19" width="326.5" height="180.28" rx="12" transform="translate(-445.14 139.05) rotate(-26.92)" style="fill:none;stroke:#4d4d4d;stroke-miterlimit:10;stroke-width:5px"/><path d="M562.43,445.77s-7.74,17.61-35.21,5.63" transform="translate(-277.12 -219.5)" style="fill:none;stroke:#4d4d4d;stroke-linecap:round;stroke-miterlimit:10;stroke-width:5px"/><path d="M659.9,514.31l-9,4.6-30-18.47a43.79,43.79,0,0,1-3.79-2.53L617,498q1.38,2.14,3.76,6.79l12.05,23.46-8.38,4.31-21.93-42.69,9.57-4.92,29,18c1.32.8,2.57,1.62,3.77,2.46l.11,0a55.16,55.16,0,0,1-3.24-5.76l-12.12-23.6,8.38-4.31Z" transform="translate(-277.12 -219.5)" style="fill:#fff"/><path d="M681.86,504q-7,3.61-13.25,1.41t-10-9.53q-3.89-7.56-1.9-14t9.1-10.07q7-3.6,13.2-1.38t9.78,9.25q3.9,7.59,2.06,14.11T681.86,504Zm-12.5-24.88a6.32,6.32,0,0,0-3.61,4.75c-.35,2.11.2,4.56,1.63,7.36q4.51,8.79,11.06,5.42,6.24-3.19,1.6-12.22Q675.66,475.85,669.36,479.09Z" transform="translate(-277.12 -219.5)" style="fill:#fff"/><path d="M640.88,616.55l-10.19,5.24L618.91,614c-.88-.59-1.71-1.11-2.46-1.55a14.29,14.29,0,0,0-2.15-1,5.93,5.93,0,0,0-1.89-.38,3.61,3.61,0,0,0-1.72.42l-2.39,1.22L616.69,629l-8.88,4.56-21.93-42.69L600,583.62q14.35-7.38,20.31,4.24a14.51,14.51,0,0,1,1.49,4.45,13.31,13.31,0,0,1,0,4.32,13.09,13.09,0,0,1-1.44,4,15.42,15.42,0,0,1-2.76,3.6l.06.12a6.41,6.41,0,0,1,2.21.09,14.88,14.88,0,0,1,2.39.75,24.8,24.8,0,0,1,2.46,1.16c.82.45,1.59.9,2.31,1.36Zm-42.42-23.06,6.11,11.88,3.84-2a6.89,6.89,0,0,0,3.68-4.14,7,7,0,0,0-.55-5.4q-2.88-5.6-9.06-2.42Z" transform="translate(-277.12 -219.5)" style="fill:#fff"/><path d="M661.15,590.26l-18.36,9.43q3.86,6.42,11.13,2.68a16,16,0,0,0,6.94-6.58l3.49,6.79q-2.75,4.26-9,7.47-6.82,3.51-12.69,1.34t-9.63-9.48q-3.9-7.59-2.11-14.12a14.67,14.67,0,0,1,7.73-9.57q6.15-3.16,11.56-.94t8.89,9Zm-11-1.64q-3.36-6.54-8.26-4a5.12,5.12,0,0,0-2.65,3.73,10,10,0,0,0,.55,5.63Z" transform="translate(-277.12 -219.5)" style="fill:#fff"/><path d="M670.52,600.31l-3.92-7.62a20.16,20.16,0,0,0,5.35-.11,14.82,14.82,0,0,0,4.38-1.39,9.12,9.12,0,0,0,3.29-2.55,2.5,2.5,0,0,0,.26-2.77,2.22,2.22,0,0,0-1.37-1.18,6.2,6.2,0,0,0-2.09-.24,17.29,17.29,0,0,0-2.48.26c-.88.15-1.74.25-2.59.31a22.17,22.17,0,0,1-3.71.05,9.85,9.85,0,0,1-3.09-.73A8.27,8.27,0,0,1,662,582.6a11.5,11.5,0,0,1-2.13-3,9.62,9.62,0,0,1,0-9.37,13.71,13.71,0,0,1,3-3.75,21.79,21.79,0,0,1,4.32-2.91,26.77,26.77,0,0,1,4-1.64,30.78,30.78,0,0,1,4.26-1l3.73,7.27a14.72,14.72,0,0,0-4.34.25,15.71,15.71,0,0,0-4,1.38,8,8,0,0,0-1.52,1,5.6,5.6,0,0,0-1.09,1.16,2.76,2.76,0,0,0-.5,1.27,2.14,2.14,0,0,0,.25,1.28,2.39,2.39,0,0,0,1.23,1.18A4.72,4.72,0,0,0,671,576a13.84,13.84,0,0,0,2.17-.13c.76-.11,1.53-.21,2.29-.3a26.14,26.14,0,0,1,3.87-.18,11.18,11.18,0,0,1,3.34.58,7.93,7.93,0,0,1,2.79,1.65,11.85,11.85,0,0,1,3.55,8.24,10.22,10.22,0,0,1-1.29,4.61,14,14,0,0,1-3.24,3.89,24.54,24.54,0,0,1-4.6,3.06A26.29,26.29,0,0,1,670.52,600.31Z" transform="translate(-277.12 -219.5)" style="fill:#fff"/><path d="M724.29,573.7l-8.66,4.45-2.38-4.64-.14.07q-.45,7-5.84,9.81-9.78,5-16.38-7.81l-9.45-18.39,8.66-4.45,9,17.56q3.33,6.47,8,4a5.09,5.09,0,0,0,2.83-3.69,8.48,8.48,0,0,0-1.07-5.53l-9-17.44,8.66-4.45Z" transform="translate(-277.12 -219.5)" style="fill:#fff"/><path d="M740.29,565.49,731.6,570l-23.18-45.13,8.68-4.47Z" transform="translate(-277.12 -219.5)" style="fill:#fff"/><path d="M764.43,552.63a13.5,13.5,0,0,1-5.23,4.08q-9.18,4.72-14.49-5.61l-7.17-14L733,539.48l-3.57-6.94L734,530.2l-3.38-6.58,7.28-7.13,4.76,9.26L749,522.5l3.56,6.94-6.32,3.25L752.53,545q2.44,4.77,5.94,3a6.28,6.28,0,0,0,2.39-2.32Z" transform="translate(-277.12 -219.5)" style="fill:#fff"/><path d="M767.26,550.62,763.34,543a20.14,20.14,0,0,0,5.35-.12,14.81,14.81,0,0,0,4.38-1.38,9,9,0,0,0,3.29-2.56,2.5,2.5,0,0,0,.26-2.77,2.26,2.26,0,0,0-1.37-1.17,6.45,6.45,0,0,0-2.09-.25,19.27,19.27,0,0,0-2.49.27c-.87.14-1.73.25-2.58.31a23.22,23.22,0,0,1-3.71,0,9.79,9.79,0,0,1-3.09-.73,8.27,8.27,0,0,1-2.56-1.73,11.65,11.65,0,0,1-2.12-3,10.17,10.17,0,0,1-1.23-4.94,9.88,9.88,0,0,1,1.2-4.43,13.53,13.53,0,0,1,3-3.75,21.83,21.83,0,0,1,4.32-2.92,26.74,26.74,0,0,1,4-1.63,29.41,29.41,0,0,1,4.26-1l3.73,7.26a15.06,15.06,0,0,0-4.34.25,15.71,15.71,0,0,0-4,1.38,8.38,8.38,0,0,0-1.53,1,5.8,5.8,0,0,0-1.08,1.16,2.8,2.8,0,0,0-.5,1.27,2.26,2.26,0,0,0,.24,1.29A2.45,2.45,0,0,0,766,526a5,5,0,0,0,1.82.37,13.76,13.76,0,0,0,2.17-.14l2.3-.3a29.18,29.18,0,0,1,3.87-.18,11.51,11.51,0,0,1,3.34.58,8.11,8.11,0,0,1,2.79,1.65,11.79,11.79,0,0,1,3.54,8.25,10.12,10.12,0,0,1-1.28,4.61,14.08,14.08,0,0,1-3.25,3.89,23.94,23.94,0,0,1-4.59,3A26.31,26.31,0,0,1,767.26,550.62Z" transform="translate(-277.12 -219.5)" style="fill:#fff"/><path d="M568.07,413.37S654,502.11,656.81,562.68" transform="translate(-277.12 -219.5)" style="fill:none;stroke:#4d4d4d;stroke-linecap:round;stroke-miterlimit:10;stroke-width:5px"/><path d="M666.67,565.5s-1.41,5.63-12.68,18.31" transform="translate(-277.12 -219.5)" style="fill:none;stroke:#4d4d4d;stroke-linecap:round;stroke-miterlimit:10;stroke-width:5px"/><line x1="375.46" y1="374.17" x2="375.46" y2="389.66" style="fill:none;stroke:#4d4d4d;stroke-linecap:round;stroke-miterlimit:10;stroke-width:5px"/><line x1="383.91" y1="367.12" x2="389.55" y2="374.17" style="fill:none;stroke:#4d4d4d;stroke-linecap:round;stroke-miterlimit:10;stroke-width:5px"/><line x1="368.42" y1="374.17" x2="361.38" y2="378.39" style="fill:none;stroke:#4d4d4d;stroke-linecap:round;stroke-miterlimit:10;stroke-width:5px"/></svg>